<?xml version="1.0" encoding="UTF-8" standalone="no"?>
<!-- Created with Inkscape (http://www.inkscape.org/) -->

<svg
   width="1366"
   height="768"
   viewBox="0 0 361.42083 203.20001"
   version="1.1"
   id="svg5"
   inkscape:version="1.1 (c68e22c387, 2021-05-23)"
   sodipodi:docname="ambulance background.svg"
   inkscape:export-filename="C:\Users\stems\OneDrive\Documents\GitHub\portfolio-project\images\ambulance background.png"
   inkscape:export-xdpi="96"
   inkscape:export-ydpi="96"
   xmlns:inkscape="http://www.inkscape.org/namespaces/inkscape"
   xmlns:sodipodi="http://sodipodi.sourceforge.net/DTD/sodipodi-0.dtd"
   xmlns="http://www.w3.org/2000/svg"
   xmlns:svg="http://www.w3.org/2000/svg">
  <sodipodi:namedview
     id="namedview7"
     pagecolor="#041562"
     bordercolor="#ffffff"
     borderopacity="1"
     inkscape:pageshadow="0"
     inkscape:pageopacity="1"
     inkscape:pagecheckerboard="false"
     inkscape:document-units="pt"
     showgrid="false"
     units="px"
     fit-margin-top="0"
     fit-margin-left="0"
     fit-margin-right="0"
     fit-margin-bottom="0"
     inkscape:zoom="0.7502797"
     inkscape:cx="227.915"
     inkscape:cy="299.22174"
     inkscape:window-width="1536"
     inkscape:window-height="953"
     inkscape:window-x="-8"
     inkscape:window-y="-8"
     inkscape:window-maximized="1"
     inkscape:current-layer="layer1"
     inkscape:snap-nodes="false"
     inkscape:snap-others="false"
     inkscape:snap-to-guides="false"
     showguides="true" />
  <defs
     id="defs2" />
  <g
     inkscape:groupmode="layer"
     id="layer2"
     inkscape:label="Dashboard"
     style="display:inline">
    <rect
       style="fill:#eeeeee;fill-opacity:0.2;stroke-width:0.499999;stroke-linecap:round;stroke-linejoin:round"
       id="rect44928"
       width="334.14047"
       height="179.53632"
       x="9.4438667"
       y="8.3857298"
       ry="5.4858894"
       rx="5.4858894" />
    <rect
       style="fill:#eeeeee;fill-opacity:1;stroke-width:0.500001;stroke-linecap:round;stroke-linejoin:round"
       id="rect45893-43"
       width="107.95853"
       height="99.030251"
       x="22.544977"
       y="72.676804"
       ry="5.4858894"
       rx="5.4858899" />
    <text
       xml:space="preserve"
       style="font-size:10.5833px;line-height:1.25;font-family:'Courier New';-inkscape-font-specification:'Courier New, Normal';fill:#ffffff;fill-opacity:1;stroke-width:0.264583"
       x="22.384806"
       y="25.961517"
       id="text11526"><tspan
         sodipodi:role="line"
         id="tspan12412"
         x="22.384806"
         y="25.961517"
         style="font-style:normal;font-variant:normal;font-weight:bold;font-stretch:normal;font-size:9.87778px;font-family:Raleway;-inkscape-font-specification:'Raleway, Normal';font-variant-ligatures:normal;font-variant-caps:normal;font-variant-numeric:normal;font-variant-east-asian:normal;fill:#ffffff;fill-opacity:1">Victorian Ambulance Performance</tspan></text>
  </g>
  <g
     inkscape:label="Layer 1"
     inkscape:groupmode="layer"
     id="layer1">
    <rect
       style="fill:#eeeeee;fill-opacity:1;stroke-width:0.5;stroke-linecap:round;stroke-linejoin:round"
       id="rect45893"
       width="107.95853"
       height="26.737762"
       x="22.139132"
       y="37.4086"
       ry="5.4858894"
       rx="5.4858899" />
    <path
       d="m 36.274406,45.751395 c 0.557482,0 1.009777,0.452086 1.009777,1.009777 v 1.009777 h 1.066577 c 0.357629,0 0.681599,0.140948 0.952977,0.393392 l 1.626162,1.626162 c 0.252444,0.252444 0.393392,0.595347 0.393392,0.952977 v 2.412946 c 0.372355,0 0.673185,0.300829 0.673185,0.673184 0,0.372356 -0.30083,0.673185 -0.673185,0.673185 h -0.673185 c 0,1.114963 -0.904591,2.019554 -2.019554,2.019554 -1.133895,0 -2.019553,-0.904591 -2.019553,-2.019554 H 33.91826 c 0,1.114963 -0.904592,2.019554 -2.019554,2.019554 -1.133895,0 -2.019554,-0.904591 -2.019554,-2.019554 H 29.54256 c -0.557691,0 -1.009777,-0.452295 -1.009777,-1.009777 v -6.731846 c 0,-0.557691 0.452086,-1.009777 1.009777,-1.009777 z m 1.009777,3.365923 v 2.019554 h 2.692739 V 50.74348 L 38.35076,49.117318 Z m -5.385477,4.3757 c -0.557481,0 -1.009777,0.452296 -1.009777,1.009777 0,0.557482 0.452296,1.009777 1.009777,1.009777 0.557481,0 1.009777,-0.452295 1.009777,-1.009777 0,-0.557481 -0.452296,-1.009777 -1.009777,-1.009777 z m 6.731846,2.019554 c 0.557482,0 1.009777,-0.452295 1.009777,-1.009777 0,-0.557481 -0.452295,-1.009777 -1.009777,-1.009777 -0.557481,0 -1.009776,0.452296 -1.009776,1.009777 0,0.557482 0.452295,1.009777 1.009776,1.009777 z m -7.741623,-6.058661 c 0,0.185125 0.151467,0.336592 0.336593,0.336592 h 1.009777 v 1.009777 c 0,0.185126 0.151466,0.336592 0.336592,0.336592 h 0.673184 c 0.185126,0 0.336593,-0.151466 0.336593,-0.336592 v -1.009777 h 1.009777 c 0.185125,0 0.336592,-0.151467 0.336592,-0.336592 v -0.673185 c 0,-0.185126 -0.151467,-0.336592 -0.336592,-0.336592 h -1.009777 v -1.009777 c 0,-0.185968 -0.151467,-0.336593 -0.336593,-0.336593 h -0.673184 c -0.185126,0 -0.336592,0.150625 -0.336592,0.336593 v 1.009777 h -1.009777 c -0.185126,0 -0.336593,0.151466 -0.336593,0.336592 z"
       id="path45994"
       style="fill:#ff0000;fill-opacity:1;stroke-width:0.264583" />
    <rect
       style="fill:#eeeeee;fill-opacity:1;stroke-width:0.5;stroke-linecap:round;stroke-linejoin:round"
       id="rect45893-4"
       width="98.789726"
       height="26.737762"
       x="138.5656"
       y="37.772739"
       ry="5.4858894"
       rx="5.4858899" />
    <text
       xml:space="preserve"
       style="font-style:normal;font-variant:normal;font-weight:600;font-stretch:normal;font-size:4.93889px;line-height:1.25;font-family:Raleway;-inkscape-font-specification:'Raleway, Semi-Bold';font-variant-ligatures:normal;font-variant-caps:normal;font-variant-numeric:normal;font-variant-east-asian:normal;fill:#041562;fill-opacity:1;stroke-width:0.264583"
       x="164.04051"
       y="44.652195"
       id="text7034-6"><tspan
         sodipodi:role="line"
         id="tspan61334-4"
         x="164.04051"
         y="44.652195">Average Response Tim</tspan></text>
    <path
       d="m 151.36054,44.411341 c 0.37236,0 0.67319,0.30146 0.67319,0.673187 0,0.371726 -0.30083,0.673188 -0.67319,0.673188 h -0.33659 v 0.724727 c 0.78889,0.120964 1.50836,0.453351 2.0974,0.937203 l 0.4565,-0.454401 c 0.26297,-0.262963 0.68792,-0.262963 0.95088,0 0.26296,0.262964 0.26296,0.687913 0,0.950878 l -0.50699,0.509097 c 0.44598,0.683707 0.70474,1.502051 0.70474,2.381402 0,2.417163 -1.95856,4.375719 -4.37572,4.375719 -2.41716,0 -4.37572,-1.958556 -4.37572,-4.375719 0,-2.18786 1.60555,-4.001259 3.70253,-4.324179 v -0.724727 h -0.33659 c -0.37236,0 -0.67319,-0.301462 -0.67319,-0.673188 0,-0.371727 0.30083,-0.673187 0.67319,-0.673187 z m -0.50489,4.039125 c 0,-0.279794 -0.2251,-0.504891 -0.50489,-0.504891 -0.27979,0 -0.50489,0.225097 -0.50489,0.504891 v 2.69275 c 0,0.279794 0.2251,0.50489 0.50489,0.50489 0.27979,0 0.50489,-0.225096 0.50489,-0.50489 z"
       id="path47490"
       style="fill:#ff0000;fill-opacity:1;stroke-width:0.264583" />
    <text
       xml:space="preserve"
       style="font-style:normal;font-variant:normal;font-weight:600;font-stretch:normal;font-size:4.93889px;line-height:1.25;font-family:Raleway;-inkscape-font-specification:'Raleway, Semi-Bold';font-variant-ligatures:normal;font-variant-caps:normal;font-variant-numeric:normal;font-variant-east-asian:normal;fill:#041562;fill-opacity:1;stroke-width:0.264583"
       x="46.40192"
       y="44.546848"
       id="text7034"><tspan
         sodipodi:role="line"
         id="tspan61334"
         x="46.40192"
         y="44.546848">Total First Responses</tspan></text>
    <text
       xml:space="preserve"
       style="font-style:normal;font-variant:normal;font-weight:bold;font-stretch:normal;font-size:9.17222px;line-height:1.25;font-family:Poppins;-inkscape-font-specification:'Poppins, Bold';font-variant-ligatures:normal;font-variant-caps:normal;font-variant-numeric:normal;font-variant-east-asian:normal;fill:#041562;fill-opacity:1;stroke-width:0.264583"
       x="57.6866"
       y="54.420944"
       id="text62756"><tspan
         sodipodi:role="line"
         id="tspan62848"
         x="57.6866"
         y="54.420944">1,000</tspan></text>
  </g>
</svg>
