<?xml version="1.0" encoding="UTF-8" standalone="no"?>
<!-- Created with Inkscape (http://www.inkscape.org/) -->

<svg
   width="1400"
   height="850"
   viewBox="0 0 370.41661 224.89582"
   version="1.1"
   id="svg5"
   inkscape:version="1.1 (c68e22c387, 2021-05-23)"
   sodipodi:docname="ambulance background.svg"
   inkscape:export-filename="C:\Users\stems\Documents\images\ambulance background.png"
   inkscape:export-xdpi="96"
   inkscape:export-ydpi="96"
   xmlns:inkscape="http://www.inkscape.org/namespaces/inkscape"
   xmlns:sodipodi="http://sodipodi.sourceforge.net/DTD/sodipodi-0.dtd"
   xmlns="http://www.w3.org/2000/svg"
   xmlns:svg="http://www.w3.org/2000/svg">
  <sodipodi:namedview
     id="namedview7"
     pagecolor="#041562"
     bordercolor="#ffffff"
     borderopacity="1"
     inkscape:pageshadow="0"
     inkscape:pageopacity="1"
     inkscape:pagecheckerboard="false"
     inkscape:document-units="pt"
     showgrid="false"
     units="px"
     fit-margin-top="0"
     fit-margin-left="0"
     fit-margin-right="0"
     fit-margin-bottom="0"
     inkscape:zoom="1.0610557"
     inkscape:cx="358.60511"
     inkscape:cy="209.69681"
     inkscape:window-width="1536"
     inkscape:window-height="953"
     inkscape:window-x="-8"
     inkscape:window-y="-8"
     inkscape:window-maximized="1"
     inkscape:current-layer="layer2"
     inkscape:snap-nodes="false"
     inkscape:snap-others="false"
     inkscape:snap-to-guides="false"
     showguides="true"
     width="1190mm" />
  <defs
     id="defs2" />
  <g
     inkscape:groupmode="layer"
     id="layer2"
     inkscape:label="dashboard"
     transform="translate(-7.6305122,26.573378)">
    <rect
       style="fill:#eeeeee;fill-opacity:0.15;stroke-width:0.499999;stroke-linecap:round;stroke-linejoin:round"
       id="rect44928"
       width="348.47498"
       height="207.22119"
       x="18.601337"
       y="-17.736069"
       ry="5.485889"
       rx="5.4858894"
       inkscape:export-filename="C:\Users\stems\Documents\images\rect44928.png"
       inkscape:export-xdpi="100.00372"
       inkscape:export-ydpi="100.00372" />
    <rect
       style="fill:#eeeeee;fill-opacity:1;stroke-width:0.5;stroke-linecap:round;stroke-linejoin:round"
       id="rect15863-6"
       width="105.83332"
       height="95.249992"
       x="254.28346"
       y="66.912727"
       ry="5.4858894"
       rx="5.4858899"
       inkscape:label="rect15863-6" />
    <rect
       style="fill:#eeeeee;fill-opacity:1;stroke-width:0.5;stroke-linecap:round;stroke-linejoin:round"
       id="rect45893-44"
       width="105.83332"
       height="95.249985"
       x="25.2694"
       y="66.912727"
       ry="5.485889"
       rx="5.4858899" />
    <rect
       style="fill:#eeeeee;fill-opacity:1;stroke-width:0.5;stroke-linecap:round;stroke-linejoin:round"
       id="rect15863"
       width="105.83332"
       height="95.249992"
       x="139.77644"
       y="66.912727"
       ry="5.485889"
       rx="5.4858899" />
    <g
       inkscape:groupmode="layer"
       id="layer4"
       inkscape:label="Text">
      <text
         xml:space="preserve"
         style="font-style:normal;font-variant:normal;font-weight:normal;font-stretch:normal;font-size:3.52778px;line-height:1.25;font-family:Karla;-inkscape-font-specification:'Karla, Normal';font-variant-ligatures:normal;font-variant-caps:normal;font-variant-numeric:normal;font-variant-east-asian:normal;white-space:pre;inline-size:183.132;fill:#ffffff;fill-opacity:1;stroke-width:0.264583"
         x="37.380508"
         y="74.055717"
         id="text16132"
         inkscape:label="Footnote"
         transform="translate(-10.024776,103.52277)"><tspan
           x="37.380508"
           y="74.055717"
           id="tspan48308">Code 1 incidents require urgent paramedic and hospital care. These patients receive &quot;lights and sirens&quot; response
</tspan><tspan
           x="37.380508"
           y="78.465445"
           id="tspan48310">Code 2 incidents are acute and time sensitive but do not require a lights and sirens response.
</tspan><tspan
           x="37.380508"
           y="82.875174"
           id="tspan48312">* LGAs with First Response numbers less than 300 in the quarterly period excluded</tspan></text>
      <text
         xml:space="preserve"
         style="font-style:normal;font-variant:normal;font-weight:normal;font-stretch:normal;font-size:4.23333px;line-height:1.25;font-family:Karla;-inkscape-font-specification:'Karla, Normal';font-variant-ligatures:normal;font-variant-caps:normal;font-variant-numeric:normal;font-variant-east-asian:normal;white-space:pre;inline-size:335.453;fill:#ffffff;fill-opacity:1;stroke-width:0.264583"
         x="37.380508"
         y="74.055717"
         id="text4652"
         inkscape:label="Summary"
         transform="translate(-12.13686,-66.667889)"><tspan
           x="37.380508"
           y="74.055717"
           id="tspan48314">The COVID-19 pandemic has had significant, enduring effects on both the volume and type of demands placed upon ambulance services both from a patient perspective as </tspan><tspan
           x="37.380508"
           y="79.347381"
           id="tspan48316">well as overall operating environment. 
</tspan><tspan
           x="37.380508"
           y="84.639045"
           id="tspan48318">This can be observed through data from June 2017 to April 2022 showing increase in response times and overall first response volumes across most LGA across Victoria. 
</tspan><tspan
           x="37.380508"
           y="89.93071"
           id="tspan48320">In a statement Ambulance Victoria said Covid, sicker patients resulting from deferred care and staff furloughing had created the record demand for ambulances.</tspan></text>
      <text
         xml:space="preserve"
         style="font-size:10.5833px;line-height:1.25;font-family:'Courier New';-inkscape-font-specification:'Courier New, Normal';fill:#ffffff;fill-opacity:1;stroke-width:0.264583"
         x="25.249645"
         y="-1.5953001"
         id="text11526"
         inkscape:label="Title"><tspan
           sodipodi:role="line"
           id="tspan12412"
           x="25.249645"
           y="-1.5953001"
           style="font-style:normal;font-variant:normal;font-weight:bold;font-stretch:normal;font-size:9.87778px;font-family:Lato;-inkscape-font-specification:'Lato, Bold';font-variant-ligatures:normal;font-variant-caps:normal;font-variant-numeric:normal;font-variant-east-asian:normal;fill:#ffffff;fill-opacity:1">Victorian Ambulance Performance</tspan></text>
    </g>
  </g>
  <g
     inkscape:groupmode="layer"
     id="layer3"
     inkscape:label="references"
     transform="translate(-7.6305122,26.573378)" />
  <g
     inkscape:label="Layer 1"
     inkscape:groupmode="layer"
     id="layer1"
     transform="translate(-7.6305122,26.573378)">
    <rect
       style="fill:#eeeeee;fill-opacity:1;stroke-width:0.5;stroke-linecap:round;stroke-linejoin:round"
       id="rect45893-4"
       width="105.83333"
       height="22.930552"
       x="139.77643"
       y="36.125835"
       ry="5.4858894"
       rx="5.4858899" />
    <path
       d="m 154.41795,42.205634 c 0.6157,0 1.11522,0.452086 1.11522,1.009777 v 1.009777 h 1.17794 c 0.39498,0 0.75277,0.140948 1.05249,0.393392 l 1.79596,1.626162 c 0.2788,0.252444 0.43446,0.595347 0.43446,0.952977 v 2.412946 c 0.41123,0 0.74347,0.300829 0.74347,0.673184 0,0.372356 -0.33224,0.673185 -0.74347,0.673185 h -0.74348 c 0,1.114963 -0.99904,2.019554 -2.23042,2.019554 -1.25229,0 -2.23042,-0.904591 -2.23042,-2.019554 h -2.97391 c 0,1.114963 -0.99904,2.019554 -2.23043,2.019554 -1.25229,0 -2.23043,-0.904591 -2.23043,-2.019554 h -0.37173 c -0.61592,0 -1.11522,-0.452295 -1.11522,-1.009777 v -6.731846 c 0,-0.557691 0.4993,-1.009777 1.11522,-1.009777 z m 1.11522,3.365923 v 2.019554 h 2.9739 v -0.393392 l -1.79596,-1.626162 z m -5.94781,4.3757 c -0.61569,0 -1.11521,0.452296 -1.11521,1.009777 0,0.557482 0.49952,1.009777 1.11521,1.009777 0.6157,0 1.11521,-0.452295 1.11521,-1.009777 0,-0.557481 -0.49951,-1.009777 -1.11521,-1.009777 z m 7.43476,2.019554 c 0.61569,0 1.11522,-0.452295 1.11522,-1.009777 0,-0.557481 -0.49953,-1.009777 -1.11522,-1.009777 -0.61569,0 -1.11522,0.452296 -1.11522,1.009777 0,0.557482 0.49953,1.009777 1.11522,1.009777 z m -8.54997,-6.058661 c 0,0.185125 0.16728,0.336592 0.37174,0.336592 h 1.11521 v 1.009777 c 0,0.185126 0.16728,0.336592 0.37174,0.336592 h 0.74347 c 0.20446,0 0.37175,-0.151466 0.37175,-0.336592 v -1.009777 h 1.1152 c 0.20446,0 0.37175,-0.151467 0.37175,-0.336592 v -0.673185 c 0,-0.185126 -0.16729,-0.336592 -0.37175,-0.336592 h -1.1152 v -1.009777 c 0,-0.185968 -0.16729,-0.336593 -0.37175,-0.336593 h -0.74347 c -0.20446,0 -0.37174,0.150625 -0.37174,0.336593 v 1.009777 h -1.11521 c -0.20446,0 -0.37174,0.151466 -0.37174,0.336592 z"
       id="path45994"
       style="fill:#ff0000;fill-opacity:1;stroke-width:0.264583" />
    <text
       xml:space="preserve"
       style="font-style:normal;font-variant:normal;font-weight:bold;font-stretch:normal;font-size:4.27567px;line-height:1.25;font-family:Lato;-inkscape-font-specification:'Lato, Bold';font-variant-ligatures:normal;font-variant-caps:normal;font-variant-numeric:normal;font-variant-east-asian:normal;fill:#041562;fill-opacity:1;stroke-width:0.264583"
       x="157.68369"
       y="43.60825"
       id="text18006"
       transform="scale(1.0509119,0.95155455)"><tspan
         sodipodi:role="line"
         id="tspan18026"
         x="157.68369"
         y="43.60825"
         style="font-size:4.27567px;stroke-width:0.264583">Number of first responses</tspan></text>
    <rect
       style="fill:#eeeeee;fill-opacity:1;stroke-width:0.5;stroke-linecap:round;stroke-linejoin:round"
       id="rect45893"
       width="105.83373"
       height="22.930641"
       x="25.2694"
       y="36.125835"
       ry="5.485889"
       rx="5.4858904" />
    <text
       xml:space="preserve"
       style="font-style:normal;font-variant:normal;font-weight:bold;font-stretch:normal;font-size:4.40972px;line-height:1.25;font-family:Lato;-inkscape-font-specification:'Lato, Bold';font-variant-ligatures:normal;font-variant-caps:normal;font-variant-numeric:normal;font-variant-east-asian:normal;fill:#041562;fill-opacity:1;stroke-width:0.264583"
       x="50.857323"
       y="42.916397"
       id="text11526-3"
       transform="scale(1.0509119,0.95155455)"><tspan
         sodipodi:role="line"
         id="tspan17966"
         x="50.857323"
         y="42.916397"
         style="font-size:4.40972px;stroke-width:0.264583">Average Response Time</tspan></text>
    <path
       d="m 36.51815,42.205633 c 0.411242,0 0.743484,0.301462 0.743484,0.67319 0,0.371728 -0.332242,0.673191 -0.743484,0.673191 h -0.371737 v 0.72473 c 0.871266,0.120964 1.665864,0.453352 2.316411,0.937206 l 0.504168,-0.454403 c 0.290429,-0.262964 0.759753,-0.262964 1.050171,0 0.290418,0.262965 0.290418,0.687916 0,0.950882 l -0.55993,0.509099 c 0.492549,0.68371 0.778329,1.502057 0.778329,2.381411 0,2.417173 -2.163073,4.375736 -4.832633,4.375736 -2.66956,0 -4.832634,-1.958563 -4.832634,-4.375736 0,-2.187868 1.773202,-4.001274 4.089149,-4.324195 v -0.72473 h -0.371736 c -0.411243,0 -0.743485,-0.301463 -0.743485,-0.673191 0,-0.371728 0.332242,-0.67319 0.743485,-0.67319 z m -0.557611,4.039141 c 0,-0.279795 -0.248605,-0.504893 -0.55761,-0.504893 -0.309006,0 -0.557611,0.225098 -0.557611,0.504893 v 2.692761 c 0,0.279795 0.248605,0.504892 0.557611,0.504892 0.309005,0 0.55761,-0.225097 0.55761,-0.504892 z"
       id="path47490"
       style="fill:#ff0000;fill-opacity:1;stroke-width:0.264583" />
    <g
       id="g32713">
      <rect
         style="fill:#eeeeee;fill-opacity:1;stroke-width:0.5;stroke-linecap:round;stroke-linejoin:round"
         id="rect45893-4-3"
         width="105.83333"
         height="22.930552"
         x="254.28345"
         y="36.125835"
         ry="5.4858894"
         rx="5.4858899"
         inkscape:label="Filters" />
      <text
         xml:space="preserve"
         style="font-style:normal;font-variant:normal;font-weight:bold;font-stretch:normal;font-size:4.40972px;line-height:1.25;font-family:Lato;-inkscape-font-specification:'Lato, Bold';font-variant-ligatures:normal;font-variant-caps:normal;font-variant-numeric:normal;font-variant-east-asian:normal;fill:#041562;fill-opacity:1;stroke-width:0.264583"
         x="258.62985"
         y="43.60825"
         id="text31934"
         transform="scale(1.0509119,0.95155455)"><tspan
           sodipodi:role="line"
           id="tspan32046"
           x="258.62985"
           y="43.60825"
           style="font-size:4.40972px">% of first responses within 15mins</tspan></text>
    </g>
    <path
       d="m 265.80713,41.344346 c 0.55748,0 1.00977,0.452085 1.00977,1.009774 v 6.727619 c -0.80361,0.450191 -1.34636,1.308499 -1.34636,2.295133 0,0.271377 0.0757,0.52382 0.20826,0.738397 h -4.58395 c -0.55769,0 -1.00977,-0.452295 -1.00977,-1.009775 v -1.682956 h 3.02932 c 0.18512,0 0.33659,-0.151466 0.33659,-0.336591 0,-0.185125 -0.15147,-0.336592 -0.33659,-0.336592 h -3.02932 V 47.40299 h 3.02932 c 0.18512,0 0.33659,-0.151466 0.33659,-0.336591 0,-0.185125 -0.15147,-0.336591 -0.33659,-0.336591 h -3.02932 V 42.35412 c 0,-0.557689 0.45208,-1.009774 1.00977,-1.009774 z m -2.52444,1.346366 c -0.18512,0 -0.33659,0.150624 -0.33659,0.336591 v 0.504887 h -0.50488 c -0.18513,0 -0.3366,0.151466 -0.3366,0.336591 v 0.336592 c 0,0.185125 0.15147,0.336591 0.3366,0.336591 h 0.50488 v 0.504887 c 0,0.185125 0.15147,0.336591 0.33659,0.336591 h 0.3366 c 0.18512,0 0.33659,-0.151466 0.33659,-0.336591 v -0.504887 h 0.50488 c 0.18513,0 0.33659,-0.151466 0.33659,-0.336591 v -0.336592 c 0,-0.185125 -0.15146,-0.336591 -0.33659,-0.336591 h -0.50488 v -0.504887 c 0,-0.185967 -0.15147,-0.336591 -0.33659,-0.336591 z m 7.57331,4.375687 c 0,0.929833 -0.75312,1.682956 -1.68296,1.682956 -0.92983,0 -1.68295,-0.753123 -1.68295,-1.682956 0,-0.929834 0.75312,-1.682957 1.68295,-1.682957 0.92984,0 1.68296,0.753123 1.68296,1.682957 z m -4.71228,4.31468 c 0,-1.0813 0.87724,-1.958541 1.95854,-1.958541 h 2.14156 c 1.0813,0 1.95854,0.877241 1.95854,1.958541 0,0.406014 -0.32817,0.73419 -0.73419,0.73419 h -4.59026 c -0.40601,0 -0.73419,-0.328176 -0.73419,-0.73419 z"
       id="path32772"
       style="fill:#ff0000;fill-opacity:1;stroke-width:0.264583" />
    <text
       xml:space="preserve"
       style="font-style:normal;font-variant:normal;font-weight:bold;font-stretch:normal;font-size:4.40972px;line-height:1.25;font-family:Lato;-inkscape-font-specification:'Lato, Bold';font-variant-ligatures:normal;font-variant-caps:normal;font-variant-numeric:normal;font-variant-east-asian:normal;white-space:pre;inline-size:66.3882;fill:#041562;fill-opacity:1;stroke-width:0.264583"
       x="31.875063"
       y="77.507507"
       id="text34220"
       transform="matrix(1.0509119,0,0,0.95155455,10.417069,0)"><tspan
         x="31.875063"
         y="77.507507"
         id="tspan48322">Top 15 Average Response Times *</tspan></text>
    <text
       xml:space="preserve"
       style="font-style:normal;font-variant:normal;font-weight:bold;font-stretch:normal;font-size:4.40972px;line-height:1.25;font-family:Lato;-inkscape-font-specification:'Lato, Bold';font-variant-ligatures:normal;font-variant-caps:normal;font-variant-numeric:normal;font-variant-east-asian:normal;white-space:pre;inline-size:88.6924;fill:#041562;fill-opacity:1;stroke-width:0.264583"
       x="31.875063"
       y="77.507507"
       id="text34424"
       transform="matrix(1.0509119,0,0,0.95155455,124.66922,0.24935854)"><tspan
         x="31.875063"
         y="77.507507"
         id="tspan48324">Top 15 Number of first Responses</tspan></text>
  </g>
</svg>
