<?xml version="1.0" encoding="UTF-8" standalone="no"?>
<!-- Created with Inkscape (http://www.inkscape.org/) -->

<svg
   width="528.99158mm"
   height="346.1217mm"
   viewBox="0 0 528.99158 346.1217"
   version="1.1"
   id="svg1520"
   inkscape:version="1.1 (c68e22c387, 2021-05-23)"
   sodipodi:docname="girl.svg"
   xmlns:inkscape="http://www.inkscape.org/namespaces/inkscape"
   xmlns:sodipodi="http://sodipodi.sourceforge.net/DTD/sodipodi-0.dtd"
   xmlns="http://www.w3.org/2000/svg"
   xmlns:svg="http://www.w3.org/2000/svg">
  <sodipodi:namedview
     id="namedview1522"
     pagecolor="#505050"
     bordercolor="#eeeeee"
     borderopacity="1"
     inkscape:pageshadow="0"
     inkscape:pageopacity="0"
     inkscape:pagecheckerboard="true"
     inkscape:document-units="mm"
     showgrid="false"
     fit-margin-top="0"
     fit-margin-left="0"
     fit-margin-right="0"
     fit-margin-bottom="0"
     inkscape:zoom="0.22866393"
     inkscape:cx="1250.7438"
     inkscape:cy="1475.9652"
     inkscape:window-width="1536"
     inkscape:window-height="953"
     inkscape:window-x="-8"
     inkscape:window-y="-8"
     inkscape:window-maximized="1"
     inkscape:current-layer="layer1" />
  <defs
     id="defs1517" />
  <g
     inkscape:label="Layer 1"
     inkscape:groupmode="layer"
     id="layer1"
     transform="translate(229.31398,139.51541)">
    <g
       id="g1439"
       transform="matrix(0.03527778,0,0,-0.03527778,-729.59494,351.61832)">
      <path
         d="m 26716.4,6398.7 c 0,0 -365.7,426.7 -22.5,697.7 0,0 250.6,151.8 455,139.4 0,0 -289.6,-485.6 -195.9,-533.9 93.7,-48.3 283.7,564.4 283.7,564.4 0,0 570.4,55.3 753.9,-32.9 0,0 -487.6,-399.1 -384.9,-422.8 102.7,-23.8 629.4,367.9 629.4,367.9 0,0 530.9,-90.3 502.6,-414.2 -28.3,-323.9 -211.2,-423.9 -291.6,-415.3 -80.4,8.7 -550.8,188.2 -561,122.3 -10.3,-65.9 272.9,-281.2 471.1,-291.2 0,0 -374.3,-412.8 -623.1,-293.7 -248.7,119.1 -269.9,308 -425,378.8 -155.1,70.8 -287.5,70.7 -223.4,-1.6 64,-72.2 344.6,-142.4 433.3,-299.3 88.7,-156.8 168.3,-262.6 -89.1,-223.9 -257.4,38.7 -675.7,227 -694.1,442.7 -18.4,215.6 -18.4,215.6 -18.4,215.6"
         style="fill:#f4925d;fill-opacity:1;fill-rule:nonzero;stroke:none"
         id="path1181" />
      <path
         d="m 28476.8,6755.6 c 0,0 -1441.9,55.5 -1760.4,-356.9 0,0 -70.4,-210.9 -287.1,-402.9 l -33.8,-92.1 c 0,0 249.9,263.5 339.3,279.4 0,0 -139.8,510.9 1742,572.5"
         style="fill:#f4925d;fill-opacity:1;fill-rule:nonzero;stroke:none"
         id="path1183" />
      <path
         d="m 26429.3,5995.8 c 0,0 -309.5,-228.9 -331,-637.9 l 56.1,-5.1 c 0,0 98.9,422.9 277.6,588.3 178.6,165.4 -2.7,54.7 -2.7,54.7"
         style="fill:#f4925d;fill-opacity:1;fill-rule:nonzero;stroke:none"
         id="path1185" />
      <path
         d="m 25437.7,6935.3 c 0,0 581.8,325.8 310.3,768 0,0 -217.2,271.4 -449.9,341.3 0,0 124.1,-659.4 0,-674.9 -124.1,-15.5 -85.3,744.7 -85.3,744.7 0,0 -612.8,294.7 -853.3,271.4 0,0 380.1,-643.8 256,-628.3 -124.1,15.6 -550.7,667.1 -550.7,667.1 0,0 -628.3,116.4 -729.2,-255.9 -100.8,-372.4 62.1,-558.5 155.2,-581.8 93,-23.3 690.3,-15.5 674.8,-93.1 -15.5,-77.6 -418.9,-201.7 -643.8,-131.8 0,0 248.2,-612.8 574,-581.8 325.8,31 426.6,232.7 628.3,248.2 201.7,15.5 349.1,-38.8 248.2,-93.1 -100.8,-54.3 -442.1,-17.8 -605,-156.3 -162.9,-138.4 -294.8,-223.8 7.7,-285.8 302.6,-62.1 845.5,-23.3 954.1,209.4 108.6,232.7 108.6,232.7 108.6,232.7"
         style="fill:#f9b170;fill-opacity:1;fill-rule:nonzero;stroke:none"
         id="path1187" />
      <path
         d="m 23622.6,8052.3 c 0,0 1629,-527.5 1815.1,-1117 0,0 -7.7,-263.7 155.2,-566.2 v -116.4 c 0,0 -170.7,395.6 -263.8,449.9 0,0 364.6,512 -1706.5,1349.7"
         style="fill:#f4925d;fill-opacity:1;fill-rule:nonzero;stroke:none"
         id="path1189" />
      <path
         d="m 25592.9,6369.1 c 0,0 251.2,-381.5 108,-845.9 l -64.7,17.4 c 0,0 62.8,511.5 -68.7,768.7 -131.4,257.2 25.4,59.8 25.4,59.8"
         style="fill:#f4925d;fill-opacity:1;fill-rule:nonzero;stroke:none"
         id="path1191" />
      <path
         d="m 26363.3,7384.6 c 0,0 -766.9,429.5 -409,1012.3 0,0 286.3,357.9 593,449.9 0,0 -163.6,-869.1 0,-889.6 163.6,-20.4 112.5,981.6 112.5,981.6 0,0 807.8,388.6 1124.8,357.9 0,0 -501.1,-848.7 -337.5,-828.2 163.6,20.4 726,879.3 726,879.3 0,0 828.2,153.4 961.2,-337.4 132.9,-490.8 -81.8,-736.2 -204.5,-766.9 -122.7,-30.6 -910.1,-20.4 -889.6,-122.7 20.4,-102.2 552.1,-265.8 848.7,-173.8 0,0 -327.2,-807.8 -756.7,-766.9 -429.4,40.9 -562.4,306.8 -828.2,327.2 -265.9,20.5 -460.1,-51.1 -327.2,-122.7 132.9,-71.5 582.8,-23.4 797.5,-206 214.8,-182.5 388.6,-295 -10.2,-376.8 -398.8,-81.8 -1114.5,-30.7 -1257.7,276.1 -143.1,306.7 -143.1,306.7 -143.1,306.7"
         style="fill:#f9b170;fill-opacity:1;fill-rule:nonzero;stroke:none"
         id="path1193" />
      <path
         d="m 28755.9,8857 c 0,0 -2147.2,-695.3 -2392.6,-1472.4 0,0 10.2,-347.6 -204.5,-746.4 v -153.4 c 0,0 224.9,521.5 347.6,593.1 0,0 -480.5,674.8 2249.5,1779.1"
         style="fill:#f4925d;fill-opacity:1;fill-rule:nonzero;stroke:none"
         id="path1195" />
      <path
         d="m 26158.8,6638.2 c 0,0 -331.2,-502.8 -142.4,-1115 l 85.2,22.9 c 0,0 -82.7,674.2 90.6,1013.3 173.2,339.1 -33.4,78.8 -33.4,78.8"
         style="fill:#f4925d;fill-opacity:1;fill-rule:nonzero;stroke:none"
         id="path1197" />
      <path
         d="m 26337.4,4195.8 c 829.7,0 1502.2,672.6 1502.2,1502.2 h -3004.3 c 0,-829.6 672.5,-1502.2 1502.1,-1502.2"
         style="fill:#ff929f;fill-opacity:1;fill-rule:nonzero;stroke:none"
         id="path1199" />
      <path
         d="m 26707.1,4207.3 c -61.1,-7.6 -123.4,-11.5 -186.7,-11.5 -829.6,0 -1502.1,672.6 -1502.1,1502.2 h 373.2 c 0,-766.4 574,-1398.8 1315.6,-1490.7"
         style="fill:#ffaebc;fill-opacity:1;fill-rule:nonzero;stroke:none"
         id="path1201" />
      <path
         d="m 27675,4304.7 h -2675.2 c -102.3,0 -185.3,-83 -185.3,-185.3 h 3045.9 c 0,102.3 -83,185.3 -185.4,185.3"
         style="fill:#f9698c;fill-opacity:1;fill-rule:nonzero;stroke:none"
         id="path1203" />
      <path
         d="m 24785.9,5698 v -46.1 h 3087.9 v 46.1 h -3087.9"
         style="fill:#f9698c;fill-opacity:1;fill-rule:nonzero;stroke:none"
         id="path1205" />
      <path
         d="m 22982.6,10019.7 468.3,-5568.8 c 0,0 49.1,-337.6 -202,-338.2 -412.9,-1 -2054.9,0 -2054.9,0 0,0 310.7,70.3 306.9,228.4 -4.4,186.3 -547.4,5731.3 -547.4,5731.3 l 2029.1,-52.7"
         style="fill:#f9698c;fill-opacity:1;fill-rule:nonzero;stroke:none"
         id="path1207" />
      <path
         d="m 21060.7,4213.7 c 81.2,-0.2 1649.6,-5.1 2051.7,0 175.2,2.2 205.9,155.8 207.4,255.2 0.7,47.7 -5.4,82.9 -5.4,82.9 l -12.1,144.8 -31.1,368.9 -27.4,325.9 -35.2,418.8 -29.7,353.6 -332.8,3957 -2029,52.7 c 0,0 228.6,-2320.6 390.4,-4009.7 18.1,-188.2 35.2,-368.7 51.1,-537.2 5.2,-53.7 10.1,-106.3 14.9,-157.5 15,-159.8 28.7,-306.6 40.7,-436.2 6.3,-68.3 12.1,-131.7 17.3,-189.9 20.7,-227.8 32.8,-373.2 32.9,-400.9 0.1,-16.1 -1.3,-31.1 -3.9,-45.1 -33.3,-177.5 -269.3,-183.3 -299.8,-183.3"
         style="fill:#ff929f;fill-opacity:1;fill-rule:nonzero;stroke:none"
         id="path1209" />
      <path
         d="m 18168.7,13050.1 h 9741.5 L 26769.4,8467.6 26613.2,7840 26081.8,5705.6 h -9871.5 l 1958.4,7344.5"
         style="fill:#ff929f;fill-opacity:1;fill-rule:nonzero;stroke:none"
         id="path1211" />
      <path
         d="m 27910.2,13050.1 158.1,-52.7 -1776.3,-7451.2 -210.2,159.4 1828.4,7344.5"
         style="fill:#f9698c;fill-opacity:1;fill-rule:nonzero;stroke:none"
         id="path1213" />
      <path
         d="m 26292,5546.2 h -9810.7 l -271,159.4 h 9871.5 l 210.2,-159.4"
         style="fill:#f9698c;fill-opacity:1;fill-rule:nonzero;stroke:none"
         id="path1215" />
      <path
         d="m 22846.8,4110.6 h -2124.2 v 100.9 h 2124.2 v -100.9"
         style="fill:#f9698c;fill-opacity:1;fill-rule:nonzero;stroke:none"
         id="path1217" />
      <path
         d="m 18168.8,13050.1 h 9741.4 L 26442,7149.3 l -9853.8,-1.8 1580.6,5902.6"
         style="fill:#ff929f;fill-opacity:1;fill-rule:nonzero;stroke:none"
         id="path1219" />
      <path
         d="m 17047.6,7403.3 h 9121 l 1032.9,4114.8 79.2,315.6 67.6,269.1 158.4,631.1 h -8989.5 l -174,-631.1 -74.2,-269.1 -87,-315.6 -1134.4,-4114.8"
         style="fill:#fff2e2;fill-opacity:1;fill-rule:nonzero;stroke:none"
         id="path1221" />
      <path
         d="m 18517.2,12733.9 h 8989.5 l -158.4,-631.1 h -9005.1 l 174,631.1"
         style="fill:#44474f;fill-opacity:1;fill-rule:nonzero;stroke:none"
         id="path1223" />
      <path
         d="m 27075.6,12527.6 c 43.6,0 70.1,-35.3 59.2,-78.9 -10.9,-43.6 -55,-78.9 -98.6,-78.9 -43.5,0 -70,35.3 -59.2,78.9 10.9,43.6 55,78.9 98.6,78.9"
         style="fill:#e9f3fe;fill-opacity:1;fill-rule:nonzero;stroke:none"
         id="path1225" />
      <path
         d="m 26813.4,12527.6 c 43.6,0 70.1,-35.3 59.3,-78.9 -10.9,-43.6 -55,-78.9 -98.6,-78.9 -43.6,0 -70.1,35.3 -59.2,78.9 10.8,43.6 55,78.9 98.5,78.9"
         style="fill:#e9f3fe;fill-opacity:1;fill-rule:nonzero;stroke:none"
         id="path1227" />
      <path
         d="m 26432.6,12448.7 c 10.9,43.6 55,78.9 98.6,78.9 43.5,0 70.1,-35.3 59.2,-78.9 -10.9,-43.6 -55,-78.9 -98.6,-78.9 -43.5,0 -70.1,35.3 -59.2,78.9"
         style="fill:#e9f3fe;fill-opacity:1;fill-rule:nonzero;stroke:none"
         id="path1229" />
      <path
         d="m 15344.7,8586.2 c 720,-95.1 377.4,-930 1476.2,-2094.9 794.4,-842.3 2537.1,696.3 3429.5,-168.7 C 21026,5570.8 19965,4112.5 19965,4112.5 h -4678.7 c -2196.6,1591 -541.9,4552.9 58.4,4473.7"
         style="fill:#f9b170;fill-opacity:1;fill-rule:nonzero;stroke:none"
         id="path1231" />
      <path
         d="m 20896.5,5134.2 c 18.7,-29.8 46.2,-41.2 79.8,-39.3 0.1,-0.1 0.3,0 0.5,0.1 62.1,3.4 144.8,51.5 230.6,110.4 11,7.6 21,14.2 30.1,19.9 2.3,1.4 4.7,2.9 7.1,4.3 1.8,1.2 3.7,2.2 5.5,3.3 88.7,52.4 95.8,20.5 270.6,109.9 199.3,102.1 232.9,203.5 227.6,236.8 -4.6,28.2 -101.6,2.9 -210.5,-24.7 -5.2,-1.4 -10.5,-2.7 -15.8,-4.1 -14.5,-3.7 -29.1,-7.3 -43.7,-10.9 -130.4,-31.5 -177.4,0.8 -337.8,65.9 -130.3,52.9 -686.3,434.2 -686.3,434.2 l -134.8,-269.9 c 0,0 464,-233.2 511,-350.4 24.9,-62.6 8.4,-119.3 23.6,-176.8 1.1,-4 2.2,-8 3.4,-12 9.9,-33.1 20.3,-66.9 39.1,-96.7"
         style="fill:#c97e67;fill-opacity:1;fill-rule:nonzero;stroke:none"
         id="path1233" />
      <path
         d="m 20896.5,5134.2 c 18.7,-29.8 46.2,-41.2 79.8,-39.3 0.1,-0.1 0.3,0 0.5,0.1 63.4,7.9 145.2,54.5 230.1,110.9 11.1,7.3 21.2,13.8 30.6,19.4 2.3,1.4 4.7,2.9 7.1,4.3 1.8,1.2 3.7,2.2 5.5,3.3 88.7,52.4 95.8,20.5 270.6,109.9 199.3,102.1 232.9,203.5 227.6,236.8 -4.6,28.2 -101.6,2.9 -210.5,-24.7 -19.3,-25.8 -114.3,-143.7 -274.8,-206.1 -141.1,-55.1 -305.7,-70.5 -409,-105.9 1.1,-4 2.2,-8 3.4,-12 9.9,-33.1 20.3,-66.9 39.1,-96.7"
         style="fill:#33353b;fill-opacity:1;fill-rule:nonzero;stroke:none"
         id="path1235" />
      <path
         d="m 20427.9,4191.6 c 13.4,-92.6 144.8,-84.4 292.7,-56.5 147.8,27.8 110.9,-12.7 319.8,-0.9 208.9,11.9 276,85.9 284,116.5 7.1,27.1 -95,42.2 -204.4,60.8 -13.7,2.3 -27.5,4.8 -41.3,7.2 -123.5,22.3 -210.2,107.4 -319.6,179.3 -103.5,68.1 -249.5,330.8 -249.5,330.8 l -286,-7.2 c 0,0 137.3,-235.1 189.8,-336.9 30.9,-59.9 24.9,-136.5 17.5,-195.6 -3.9,-32.1 -7.8,-64.9 -3,-97.5"
         style="fill:#c97e67;fill-opacity:1;fill-rule:nonzero;stroke:none"
         id="path1237" />
      <path
         d="m 20718.3,4124.4 c 148.7,23 110.4,-16.3 319.6,-11.3 209.2,5.1 279.1,111.7 288.1,142 8,26.8 -51.5,34.2 -160.2,56.3 l -43.3,9.1 c 0,0 -132.3,-112.1 -305.1,-101.4 -140.9,8.7 -286.4,61.9 -383.6,68.7 -5,-32 -9.9,-64.7 -6.2,-97.4 10.4,-93 142,-89 290.7,-66"
         style="fill:#33353b;fill-opacity:1;fill-rule:nonzero;stroke:none"
         id="path1239" />
      <path
         d="m 19873.4,8458.6 c 0,0 67.9,166.5 142.7,173.3 74.7,6.8 312.6,44.2 329.6,10.2 17,-34 0,-156.3 -51,-200.5 -51,-44.1 -367,-115.5 -367,-115.5 l -54.3,132.5"
         style="fill:#c97e67;fill-opacity:1;fill-rule:nonzero;stroke:none"
         id="path1241" />
      <path
         d="m 19348.3,6962.3 1406.9,-1065.7 c 0,0 -18.5,-93 -69.6,-172.2 -47,-72.9 -134.9,-146.1 -134.9,-146.1 0,0 -1477.1,604 -1712.9,967 -235.7,363 510.5,417 510.5,417"
         style="fill:#fff2e2;fill-opacity:1;fill-rule:nonzero;stroke:none"
         id="path1243" />
      <path
         d="m 17041.9,6870 c 0,0 1795.9,501.8 2182.5,353.8 386.6,-148 1441.6,-2561.3 1441.6,-2561.3 0,0 -28.5,-34 -102.7,-57.4 -69.1,-21.8 -232.8,-11.4 -232.8,-11.4 0,0 -1017,970.9 -1129.6,1244.2 -112.6,273.3 -149.7,529.8 -278,511.2 -128.2,-18.5 -1670.3,-533.9 -1993.9,-160.2 -323.6,373.7 -209.2,830.5 -209.2,830.5 l 322.1,-149.4"
         style="fill:#fffff8;fill-opacity:1;fill-rule:nonzero;stroke:none"
         id="path1245" />
      <path
         d="m 17990.5,10974 c -76.4,43.4 -167.9,48.2 -231.9,44.4 16.5,17 48.9,23.2 48.9,23.2 -39.7,5.9 -128.2,-33.5 -128.2,-33.5 -552.1,212.8 -638.9,-600.1 -627.3,-789 11.6,-188.8 13,-406.2 -262.6,-575.5 -542.3,-333.3 -84.8,-915.1 -84.8,-915.1 4.3,-2.5 252.3,-423.1 252.3,-423.1 -13.9,152.6 690.2,957.9 1057.6,1199.1 89.4,131.7 121.2,364.2 123.6,382.5 -15.4,-184.4 -47,-287.8 -75.2,-346.1 311.1,286.4 130,1318.1 -72.4,1433.1"
         style="fill:#33353b;fill-opacity:1;fill-rule:nonzero;stroke:none"
         id="path1247" />
      <path
         d="m 17992.8,9492.5 c 1.8,-0.8 -177.4,-93.9 -312.2,-57 -126.8,34.6 -209.7,199 -207.9,199.3 53.7,10.7 69.1,84.5 68,401.6 l 24.3,-4.8 408.2,-80.8 c 0,0 -9.3,-128.5 -9.6,-249.5 -0.3,-101.6 5.9,-198 29.2,-208.8"
         style="fill:#c97e67;fill-opacity:1;fill-rule:nonzero;stroke:none"
         id="path1249" />
      <path
         d="m 17973.2,9950.8 c 0,0 -9.3,-128.5 -9.6,-249.5 -228.4,6.5 -349.1,214.8 -398.6,330.3 l 408.2,-80.8"
         style="fill:#b2604d;fill-opacity:1;fill-rule:nonzero;stroke:none"
         id="path1251" />
      <path
         d="m 17522.8,10076 c 0,0 -119.7,189.2 -148.4,350.9 -20.5,115.5 38.3,543.4 468.4,481.8 0,0 124.9,-12.3 242.3,-91.6 93.4,-63.1 228.1,-199.2 77.4,-572.7 l -39.1,-126.1 -600.6,-42.3"
         style="fill:#33353b;fill-opacity:1;fill-rule:nonzero;stroke:none"
         id="path1253" />
      <path
         d="m 18049.4,9836.2 c 0,0 -540.4,-8.9 -540.7,327.7 -0.4,336.6 -70.4,562.2 274.6,582.1 345,19.9 412.2,-108.4 439.7,-220.8 27.4,-112.3 -33,-678 -173.6,-689"
         style="fill:#c97e67;fill-opacity:1;fill-rule:nonzero;stroke:none"
         id="path1255" />
      <path
         d="m 17539.2,10683.3 c 0,0 369.1,252.4 485.8,77.9 35.4,30.3 98.5,52.3 181.9,-48.8 125.3,-151.8 13.8,-420.3 13.8,-420.3 -51.4,-6 -63.5,170.5 -90.5,256.2 -20.3,64.7 -88.1,130.7 -120.2,159.3 -47.2,-106.3 -176.9,-360.7 -355.6,-406.7 -227.1,-58.3 -325.6,2.5 -325.6,2.5 0,0 174.2,138.4 210.4,379.9"
         style="fill:#33353b;fill-opacity:1;fill-rule:nonzero;stroke:none"
         id="path1257" />
      <path
         d="m 16569.1,6753 c 29.1,-80.9 118.5,-101.8 238.3,-87.7 228.4,26.7 567.8,180.1 812.3,286.1 372.8,161.6 542.2,9.8 660.8,112.6 118.6,102.9 -135.5,331.6 84.8,1393.4 74.7,360.1 -398.5,1132.7 -398.5,1132.7 0,0 -32.7,-209.3 -494.1,44.7 -2.4,1.3 -194.3,-254.5 -366,-579.9 -189.3,-359.1 -370.6,-792.8 -317.3,-1016.3 101.6,-426.1 -305,-1050.5 -220.3,-1285.6"
         style="fill:#f9698c;fill-opacity:1;fill-rule:nonzero;stroke:none"
         id="path1259" />
      <path
         d="m 17966.8,9590.1 279,-1146.1 c 0,0 34.7,-61.8 89.2,-149.8 127.9,-206.8 364.5,-558 516,-593.6 74.7,-17.7 233.7,44.5 409.5,133.4 332.6,168 725.8,431.3 725.8,431.3 25.4,152.6 -107.3,276.8 -107.3,276.8 0,0 -796.4,-299.3 -875.5,-305 -172.4,-12.3 -347.9,819.9 -509,1097.2 -116.5,200.6 -527.7,255.8 -527.7,255.8"
         style="fill:#f9698c;fill-opacity:1;fill-rule:nonzero;stroke:none"
         id="path1261" />
      <path
         d="m 17929.3,10040.3 c 0,0 10.1,-42.8 116.5,-36.2 0,0 89.3,5.5 86.6,52.5 0,0 -86.6,33.5 -203.1,-16.3"
         style="fill:#ffffff;fill-opacity:1;fill-rule:nonzero;stroke:none"
         id="path1263" />
      <path
         d="m 16569.1,6753 c 29.1,-80.9 118.5,-101.8 238.3,-87.7 158.1,68.9 841.1,333.5 833.4,512.8 -11.3,265.4 -131.3,273.9 -46.5,601.5 68,263.1 -563.1,752.2 -663.7,858.6 -189.3,-359.1 -194.5,-376.1 -141.2,-599.6 101.6,-426.1 -305,-1050.5 -220.3,-1285.6"
         style="fill:#f25784;fill-opacity:1;fill-rule:nonzero;stroke:none"
         id="path1265" />
      <path
         d="m 18335,8294.2 c 127.9,-206.8 364.5,-558 516,-593.6 74.7,-17.7 233.7,44.5 409.5,133.4 -128.3,-33.1 -253,-32.2 -374.2,-20.5 -131.3,12.7 -169.4,173.7 -377,415.2 -134.6,156.5 -167.7,117.1 -174.3,65.5"
         style="fill:#f25784;fill-opacity:1;fill-rule:nonzero;stroke:none"
         id="path1267" />
      <path
         d="m 17702.3,7786 c 0,0 114.4,88.9 222.4,67.7 108,-21.1 161,-95.3 156.7,-129.2 -4.2,-33.9 -61.4,-129.2 -144,-137.6 -82.6,-8.5 -317.7,50.8 -317.7,50.8 l 82.6,148.3"
         style="fill:#c97e67;fill-opacity:1;fill-rule:nonzero;stroke:none"
         id="path1269" />
      <path
         d="m 17472.7,9634.8 c 0,0 -440.5,-27.1 -593,-239.8 -214.6,-299.3 -729.7,-1630.9 -485.7,-1801.1 274.8,-191.6 1340.1,5.7 1340.1,5.7 0,0 32.4,151.8 -12.8,225.2 -45.1,73.4 -779.4,192 -813.3,225.9 -33.9,33.9 423.6,660.9 423.6,762.6 0,101.6 141.1,821.5 141.1,821.5"
         style="fill:#f9698c;fill-opacity:1;fill-rule:nonzero;stroke:none"
         id="path1271" />
      <path
         d="m 17817.3,7187.6 h 1622.3 l 292.5,1019.9 h -1619.9 l -294.9,-1019.9"
         style="fill:#33353b;fill-opacity:1;fill-rule:nonzero;stroke:none"
         id="path1273" />
      <path
         d="m 19450.3,7227.4 h -2137.2 v -39.8 h 2126.5 l 10.7,39.8"
         style="fill:#33353b;fill-opacity:1;fill-rule:nonzero;stroke:none"
         id="path1275" />
      <path
         d="m 18924.4,7714.1 c 10.3,35.9 -10.4,64.9 -46.3,64.9 -35.8,0 -73.2,-29 -83.5,-64.9 -10.3,-35.8 10.5,-64.9 46.3,-64.9 35.9,0 73.3,29.1 83.5,64.9"
         style="fill:#fff2e2;fill-opacity:1;fill-rule:nonzero;stroke:none"
         id="path1277" />
      <path
         d="m 25342.9,4721.9 h 1013.7 c 130.5,0 236.2,105.8 236.2,236.2 v 1013.7 c 0,130.5 -105.7,236.2 -236.2,236.2 h -1013.7 c -130.4,0 -236.2,-105.7 -236.2,-236.2 V 4958.1 c 0,-130.4 105.8,-236.2 236.2,-236.2"
         style="fill:#33353b;fill-opacity:1;fill-rule:nonzero;stroke:none"
         id="path1279" />
      <path
         d="m 25146.1,4721.9 h 1013.7 c 130.4,0 236.2,105.8 236.2,236.2 v 1013.7 c 0,130.5 -105.8,236.2 -236.2,236.2 h -1013.7 c -130.4,0 -236.2,-105.7 -236.2,-236.2 V 4958.1 c 0,-130.4 105.8,-236.2 236.2,-236.2"
         style="fill:#44474f;fill-opacity:1;fill-rule:nonzero;stroke:none"
         id="path1281" />
      <path
         d="m 18129.7,12037.1 h 1013.7 c 130.4,0 236.2,105.7 236.2,236.2 V 13287 c 0,130.4 -105.8,236.2 -236.2,236.2 h -1013.7 c -130.4,0 -236.2,-105.8 -236.2,-236.2 v -1013.7 c 0,-130.5 105.8,-236.2 236.2,-236.2"
         style="fill:#f4925d;fill-opacity:1;fill-rule:nonzero;stroke:none"
         id="path1283" />
      <path
         d="m 17932.9,12037.1 h 1013.7 c 130.4,0 236.2,105.7 236.2,236.2 V 13287 c 0,130.4 -105.8,236.2 -236.2,236.2 h -1013.7 c -130.5,0 -236.2,-105.8 -236.2,-236.2 v -1013.7 c 0,-130.5 105.7,-236.2 236.2,-236.2"
         style="fill:#f9b170;fill-opacity:1;fill-rule:nonzero;stroke:none"
         id="path1285" />
      <path
         d="m 27659.9,12435.8 h 1013.7 c 130.4,0 236.2,105.8 236.2,236.2 v 1013.7 c 0,130.5 -105.8,236.2 -236.2,236.2 h -1013.7 c -130.5,0 -236.2,-105.7 -236.2,-236.2 V 12672 c 0,-130.4 105.7,-236.2 236.2,-236.2"
         style="fill:#f4925d;fill-opacity:1;fill-rule:nonzero;stroke:none"
         id="path1287" />
      <path
         d="m 27463.1,12435.8 h 1013.6 c 130.5,0 236.2,105.8 236.2,236.2 v 1013.7 c 0,130.5 -105.7,236.2 -236.2,236.2 h -1013.6 c -130.5,0 -236.2,-105.7 -236.2,-236.2 V 12672 c 0,-130.4 105.7,-236.2 236.2,-236.2"
         style="fill:#f9b170;fill-opacity:1;fill-rule:nonzero;stroke:none"
         id="path1289" />
      <path
         d="m 25505.6,5464.5 c 0,95.9 77.8,173.7 173.8,173.7 95.9,0 173.7,-77.8 173.7,-173.7 0,-96 -77.8,-173.7 -173.7,-173.7 -96,0 -173.8,77.7 -173.8,173.7 z m -126.4,-245.7 91.7,50.5 c 36.6,-39.1 84,-67.9 137.5,-81.6 v -104.4 h 141.9 v 104.4 c 36,9.2 69.2,25.2 98.2,46.6 l 80.9,-66.3 90,109.6 -81,66.5 c 17,36.6 26.6,77.4 26.6,120.4 0,24.8 -3.2,48.8 -9.1,71.7 l 92,50.7 -68.4,124.3 -92.3,-50.9 c -36.5,38.8 -83.7,67.3 -136.9,80.9 v 105.4 h -141.9 v -105.4 c -35.7,-9.1 -68.7,-25 -97.6,-46.1 l -81.5,66.8 -90,-109.6 81.3,-66.7 c -17.2,-36.8 -26.9,-77.8 -26.9,-121.1 0,-24.5 3.1,-48.3 8.9,-70.9 l -91.8,-50.6 68.4,-124.2"
         style="fill:#ffffff;fill-opacity:1;fill-rule:nonzero;stroke:none"
         id="path1291" />
      <path
         d="m 19115.4,12717.4 -461,-214.2 v 101.8 l 348.6,152.8 v 1.9 l -348.6,152.7 v 101.8 l 461,-214.2 v -82.6"
         style="fill:#ffffff;fill-opacity:1;fill-rule:nonzero;stroke:none"
         id="path1293" />
      <path
         d="m 18486.3,12402.1 -205.5,696.3 h 97 l 205.5,-696.3 h -97"
         style="fill:#ffffff;fill-opacity:1;fill-rule:nonzero;stroke:none"
         id="path1295" />
      <path
         d="m 17764,12802.9 461.1,211.3 v -101.8 l -356.4,-152.7 v -1.9 l 356.4,-152.8 v -101.8 l -461.1,211.3 v 88.4"
         style="fill:#ffffff;fill-opacity:1;fill-rule:nonzero;stroke:none"
         id="path1297" />
      <path
         d="m 28478.7,13131 c -86.5,-2.5 -95.3,-50.1 -95.3,-85.2 0,-31.4 3.8,-64 7.5,-97.8 3.8,-33.8 6.3,-67.7 6.3,-99 0,-125.4 -77.7,-170.5 -189.3,-170.5 h -45.1 v 105.3 h 22.6 c 57.7,0 76.4,35.1 76.4,90.3 0,21.3 -3.7,45.1 -6.2,70.1 -2.5,26.4 -6.3,55.2 -6.3,87.8 -1.2,95.2 37.6,131.6 106.5,146.6 v 2.5 c -68.9,15.1 -107.7,50.2 -106.5,145.4 0,31.4 3.8,60.2 6.3,85.2 2.5,26.4 6.2,48.9 6.2,71.5 0,55.1 -20,89 -76.4,89 h -22.6 v 106.5 h 43.9 c 116.6,0 190.5,-51.4 190.5,-169.2 0,-31.3 -2.5,-65.2 -6.3,-99 -3.7,-33.9 -7.5,-66.4 -7.5,-97.8 0,-37.6 8.8,-82.7 95.3,-85.2 v -96.5"
         style="fill:#ffffff;fill-opacity:1;fill-rule:nonzero;stroke:none"
         id="path1299" />
      <path
         d="m 27513.6,13227.5 c 85.2,2.5 95.3,47.6 95.3,85.2 0,31.4 -3.8,63.9 -7.6,97.8 -3.7,33.8 -7.5,67.7 -7.5,99 0,117.8 74,169.2 191.8,169.2 h 43.9 v -106.5 h -22.6 c -56.4,-1.3 -76.5,-33.9 -76.5,-89 0,-22.6 2.5,-45.1 6.3,-71.5 2.5,-25 6.3,-53.8 6.3,-85.2 1.2,-95.2 -37.6,-130.3 -107.8,-145.4 v -2.5 c 70.2,-15 109,-51.4 107.8,-146.6 0,-32.6 -3.8,-61.4 -6.3,-87.8 -3.8,-25 -6.3,-48.8 -6.3,-70.1 0,-55.2 18.8,-89 76.5,-90.3 h 22.6 v -105.3 h -45.2 c -112.8,0 -190.5,45.1 -190.5,170.5 0,31.3 3.8,65.2 7.5,99 3.8,33.8 7.6,66.4 7.6,97.8 0,35.1 -10.1,82.7 -95.3,85.2 v 96.5"
         style="fill:#ffffff;fill-opacity:1;fill-rule:nonzero;stroke:none"
         id="path1301" />
      <path
         d="m 23713.1,11648.6 h 3145.4 c 30.2,0 56.8,20 65.2,49.1 v 0 c 12.6,43.5 -20,86.9 -65.2,86.9 h -3145.4 c -30.3,0 -56.9,-20 -65.3,-49.1 v 0 c -12.6,-43.5 20,-86.9 65.3,-86.9"
         style="fill:#f9698c;fill-opacity:1;fill-rule:nonzero;stroke:none"
         id="path1303" />
      <path
         d="m 19977.3,11338.5 h 6807.4 c 30.2,0 56.8,20 65.2,49.1 v 0 c 12.6,43.4 -20,86.8 -65.2,86.8 h -6807.4 c -30.2,0 -56.8,-20 -65.3,-49 v 0 c -12.5,-43.5 20.1,-86.9 65.3,-86.9"
         style="fill:#44474f;fill-opacity:1;fill-rule:nonzero;stroke:none"
         id="path1305" />
      <path
         d="m 22274.9,11028.4 h 4432.6 c 30.2,0 56.8,20 65.3,49 v 0 c 12.5,43.5 -20.1,86.9 -65.3,86.9 h -4432.6 c -30.2,0 -56.8,-20 -65.3,-49 v 0 c -12.5,-43.5 20.1,-86.9 65.3,-86.9"
         style="fill:#f9698c;fill-opacity:1;fill-rule:nonzero;stroke:none"
         id="path1307" />
      <path
         d="m 23029,9385 h 3145.4 c 30.3,0 56.9,19.9 65.3,49 v 0 c 12.6,43.5 -20,86.9 -65.3,86.9 H 23029 c -30.2,0 -56.8,-20 -65.2,-49.1 v 0 c -12.6,-43.5 20,-86.8 65.2,-86.8"
         style="fill:#f9698c;fill-opacity:1;fill-rule:nonzero;stroke:none"
         id="path1309" />
      <path
         d="m 21590.9,8764.7 h 4432.5 c 30.3,0 56.9,20 65.3,49 v 0 c 12.6,43.5 -20,86.9 -65.3,86.9 h -4432.5 c -30.3,0 -56.9,-20 -65.3,-49 v 0 c -12.6,-43.5 20,-86.9 65.3,-86.9"
         style="fill:#44474f;fill-opacity:1;fill-rule:nonzero;stroke:none"
         id="path1311" />
      <path
         d="m 23973.1,10574.2 h 2609.7 c 30.3,0 56.9,20 65.3,49.1 v 0 c 12.6,43.4 -20,86.8 -65.3,86.8 h -2609.7 c -30.3,0 -56.9,-20 -65.3,-49 v 0 c -12.6,-43.5 20,-86.9 65.3,-86.9"
         style="fill:#44474f;fill-opacity:1;fill-rule:nonzero;stroke:none"
         id="path1313" />
    </g>
  </g>
</svg>
